<?xml version="1.0" encoding="UTF-8" standalone="no"?><!DOCTYPE svg PUBLIC "-//W3C//DTD SVG 1.1//EN" "http://www.w3.org/Graphics/SVG/1.1/DTD/svg11.dtd"><svg width="100%" height="100%" viewBox="0 0 324 324" version="1.1" xmlns="http://www.w3.org/2000/svg" xmlns:xlink="http://www.w3.org/1999/xlink" xml:space="preserve" xmlns:serif="http://www.serif.com/" style="fill-rule:evenodd;clip-rule:evenodd;stroke-linecap:square;stroke-miterlimit:3;"><rect x="-0.06" y="-0.131" width="324.18" height="324.18" style="fill:#700f83;"/><g id="Corner-Piece-Top-Left" serif:id="Corner Piece Top Left"><circle cx="14.99" cy="14.242" r="8.15" style="fill:url(#_Linear1);"/><circle cx="32.972" cy="14.242" r="8.15" style="fill:url(#_Linear2);"/><circle cx="51.309" cy="14.242" r="8.15" style="fill:url(#_Linear3);"/><circle cx="69.291" cy="14.242" r="8.15" style="fill:url(#_Linear4);"/><circle cx="14.99" cy="32.795" r="8.15" style="fill:url(#_Linear5);"/><circle cx="32.972" cy="32.795" r="8.15" style="fill:url(#_Linear6);"/><circle cx="51.309" cy="32.795" r="8.15" style="fill:url(#_Linear7);"/><circle cx="69.291" cy="32.795" r="8.15" style="fill:url(#_Linear8);"/><circle cx="14.99" cy="51.35" r="8.15" style="fill:url(#_Linear9);"/><circle cx="32.972" cy="51.35" r="8.15" style="fill:url(#_Linear10);"/><circle cx="51.309" cy="51.35" r="8.15" style="fill:url(#_Linear11);"/><circle cx="69.291" cy="51.35" r="8.15" style="fill:url(#_Linear12);"/><circle cx="14.99" cy="69.903" r="8.15" style="fill:url(#_Linear13);"/><circle cx="32.972" cy="69.903" r="8.15" style="fill:url(#_Linear14);"/><circle cx="51.309" cy="69.903" r="8.15" style="fill:url(#_Linear15);"/><circle cx="69.291" cy="69.903" r="8.15" style="fill:url(#_Linear16);"/></g><g id="Corner-Piece-Top-Right" serif:id="Corner Piece Top Right"><circle cx="254.714" cy="14.238" r="8.15" style="fill:url(#_Linear17);"/><circle cx="272.696" cy="14.238" r="8.15" style="fill:url(#_Linear18);"/><circle cx="291.033" cy="14.238" r="8.15" style="fill:url(#_Linear19);"/><circle cx="309.015" cy="14.238" r="8.15" style="fill:url(#_Linear20);"/><circle cx="254.714" cy="32.791" r="8.15" style="fill:url(#_Linear21);"/><circle cx="272.696" cy="32.791" r="8.15" style="fill:url(#_Linear22);"/><circle cx="291.033" cy="32.791" r="8.15" style="fill:url(#_Linear23);"/><circle cx="309.015" cy="32.791" r="8.15" style="fill:url(#_Linear24);"/><circle cx="254.714" cy="51.346" r="8.15" style="fill:url(#_Linear25);"/><circle cx="272.696" cy="51.346" r="8.15" style="fill:url(#_Linear26);"/><circle cx="291.033" cy="51.346" r="8.15" style="fill:url(#_Linear27);"/><circle cx="309.015" cy="51.346" r="8.15" style="fill:url(#_Linear28);"/><circle cx="254.714" cy="69.899" r="8.15" style="fill:url(#_Linear29);"/><circle cx="272.696" cy="69.899" r="8.15" style="fill:url(#_Linear30);"/><circle cx="291.033" cy="69.899" r="8.15" style="fill:url(#_Linear31);"/><circle cx="309.015" cy="69.899" r="8.15" style="fill:url(#_Linear32);"/></g><g id="Corner-Piece-Bottom-Right" serif:id="Corner Piece Bottom Right"><circle cx="254.714" cy="254.102" r="8.15" style="fill:url(#_Linear33);"/><circle cx="272.696" cy="254.102" r="8.15" style="fill:url(#_Linear34);"/><circle cx="291.033" cy="254.102" r="8.15" style="fill:url(#_Linear35);"/><circle cx="309.015" cy="254.102" r="8.15" style="fill:url(#_Linear36);"/><circle cx="254.714" cy="272.655" r="8.15" style="fill:url(#_Linear37);"/><circle cx="272.696" cy="272.655" r="8.15" style="fill:url(#_Linear38);"/><circle cx="291.033" cy="272.655" r="8.15" style="fill:url(#_Linear39);"/><circle cx="309.015" cy="272.655" r="8.15" style="fill:url(#_Linear40);"/><circle cx="254.714" cy="291.209" r="8.15" style="fill:url(#_Linear41);"/><circle cx="272.696" cy="291.209" r="8.15" style="fill:url(#_Linear42);"/><circle cx="291.033" cy="291.209" r="8.15" style="fill:url(#_Linear43);"/><circle cx="309.015" cy="291.209" r="8.15" style="fill:url(#_Linear44);"/><circle cx="254.714" cy="309.762" r="8.15" style="fill:url(#_Linear45);"/><circle cx="272.696" cy="309.762" r="8.15" style="fill:url(#_Linear46);"/><circle cx="291.033" cy="309.762" r="8.15" style="fill:url(#_Linear47);"/><circle cx="309.015" cy="309.762" r="8.15" style="fill:url(#_Linear48);"/></g><g id="Corner-Piece-Bottom-Left" serif:id="Corner Piece Bottom Left"><circle cx="14.99" cy="254.102" r="8.15" style="fill:url(#_Linear49);"/><circle cx="32.972" cy="254.102" r="8.15" style="fill:url(#_Linear50);"/><circle cx="51.309" cy="254.102" r="8.15" style="fill:url(#_Linear51);"/><circle cx="69.291" cy="254.102" r="8.15" style="fill:url(#_Linear52);"/><circle cx="14.99" cy="272.655" r="8.15" style="fill:url(#_Linear53);"/><circle cx="32.972" cy="272.655" r="8.15" style="fill:url(#_Linear54);"/><circle cx="51.309" cy="272.655" r="8.15" style="fill:url(#_Linear55);"/><circle cx="69.291" cy="272.655" r="8.15" style="fill:url(#_Linear56);"/><circle cx="14.99" cy="291.209" r="8.15" style="fill:url(#_Linear57);"/><circle cx="32.972" cy="291.209" r="8.15" style="fill:url(#_Linear58);"/><circle cx="51.309" cy="291.209" r="8.15" style="fill:url(#_Linear59);"/><circle cx="69.291" cy="291.209" r="8.15" style="fill:url(#_Linear60);"/><circle cx="14.99" cy="309.762" r="8.15" style="fill:url(#_Linear61);"/><circle cx="32.972" cy="309.762" r="8.15" style="fill:url(#_Linear62);"/><circle cx="51.309" cy="309.762" r="8.15" style="fill:url(#_Linear63);"/><circle cx="69.291" cy="309.762" r="8.15" style="fill:url(#_Linear64);"/></g><g id="Square-Thing" serif:id="Square Thing"><path d="M276.577,151.472l-114.551,-114.552l-114.552,114.552l114.552,114.551l114.551,-114.551Z"/><path d="M238.34,113.411l-38.184,-38.184l-38.183,38.184l38.183,38.184l38.184,-38.184Z" style="fill:#d19e27;"/><path d="M162.142,113.411l-38.183,-38.184l-38.184,38.184l38.184,38.184l38.183,-38.184Z" style="fill:#d19e27;"/><path d="M162.142,189.263l-38.183,-38.184l-38.184,38.184l38.184,38.183l38.183,-38.183Z" style="fill:#d19e27;"/><path d="M238.34,189.268l-38.184,-38.183l-38.183,38.183l38.183,38.184l38.184,-38.184Z" style="fill:#d19e27;"/></g><circle cx="162" cy="151.467" r="114.57" style="fill:#f9f9f9;fill-opacity:0.168627;"/><path d="M162.778,222.696l2.159,-1.366l-2.373,3.911l0.214,-2.545Z" style="fill:#008eb2;"/><path d="M160.967,222.426l-2.159,-1.366l2.373,3.912l-0.214,-2.546Z" style="fill:#008eb2;"/><path d="M161.944,225.253l-10.596,-13.917l21.193,0l-10.597,13.917Z" style="fill:#008eb2;"/><path d="M162.028,204.224l9.986,7.381l-19.972,0l9.986,-7.381Z" style="fill:#008eb2;"/><g id="Left"><g id="Left-Part" serif:id="Left Part"><path d="M88.103,110.259l-19.952,-1.606l-9.832,122.196l19.953,1.605l9.831,-122.195Z" style="fill:#008eb2;stroke:#000;stroke-width:1.63px;"/><path d="M93.23,236.284c0,-4.494 -3.642,-8.136 -8.136,-8.136c-10.203,0 -27.59,0 -37.78,0c-2.15,0 -4.212,0.854 -5.732,2.374c-1.521,1.52 -2.375,3.582 -2.375,5.732c0,3.011 0,5.708 0,5.708c17.988,-1.973 35.995,-2.068 54.023,0c0,0 0,-2.68 0,-5.678Z" style="fill:#008eb2;stroke:#000;stroke-width:1.49px;stroke-linecap:round;stroke-linejoin:round;stroke-miterlimit:1.5;"/><path d="M77.894,227.03l-18.326,-1.572l-0.316,3.681l18.326,1.571l0.316,-3.68Z" style="fill:#008eb2;"/></g><g id="Top-Left" serif:id="Top Left"><g><path d="M74.49,81.554c0.115,-1.463 -0.98,-2.745 -2.444,-2.86l-14.737,-1.157c-1.464,-0.115 -2.746,0.981 -2.861,2.445l-0.416,5.304c-0.115,1.464 0.98,2.746 2.444,2.861l14.737,1.156c1.464,0.115 2.746,-0.98 2.861,-2.444l0.416,-5.305Z" style="fill:none;stroke:#000;stroke-width:2.98px;stroke-linecap:butt;stroke-linejoin:bevel;stroke-miterlimit:1.5;"/><path d="M74.49,81.554c0.115,-1.463 -0.98,-2.745 -2.444,-2.86l-14.737,-1.157c-1.464,-0.115 -2.746,0.981 -2.861,2.445l-0.416,5.304c-0.115,1.464 0.98,2.746 2.444,2.861l14.737,1.156c1.464,0.115 2.746,-0.98 2.861,-2.444l0.416,-5.305Z" style="fill:#008eb2;"/></g></g><g id="Left-Separator" serif:id="Left Separator"><path d="M102.437,83.923l-31.598,-2.542l-2.309,28.698l31.598,2.542l2.309,-28.698Z" style="fill:#008eb2;"/><path d="M171.427,198.982l-71.97,-109.982l-19.088,12.491l71.97,109.981l19.088,-12.49Z" style="fill:#008eb2;"/><ellipse cx="109.931" cy="100.274" rx="2.061" ry="5.78" style="fill:#008eb2;"/><path d="M70.765,89.145l-0.629,6.904l-6.237,-7.858l6.866,0.954Z" style="fill:#008eb2;"/><path d="M107.64,105.586c1.429,0.609 2.642,0.643 3.516,0.1c2.75,-1.71 1.553,-8.612 -2.67,-15.403c-4.223,-6.79 -9.885,-10.915 -12.634,-9.205c-0.875,0.544 -1.38,1.646 -1.466,3.197l13.254,21.311Z" style="fill:#008eb2;"/><path d="M97.379,80.61l-29.133,-2.189l-0.564,7.504l29.134,2.189l0.563,-7.504Z" style="fill:#008eb2;"/></g><g id="Lines"><path d="M69.799,98.341l-1.625,-0.13l-2.852,35.443l1.625,0.13l2.852,-35.443Z"/><path d="M70.039,94.732l-1.575,-0.127l-3.142,39.049l1.575,0.126l3.142,-39.048Z"/><path d="M87.796,112.835l-1.245,0.816l73.299,111.726l1.246,-0.816l-73.3,-111.726Z"/><path d="M111.743,105.329l-1.29,0.845l60.912,92.843l1.29,-0.845l-60.912,-92.843Z"/><path d="M94.741,80.534l0.12,-1.488l-23.71,-1.916l-0.12,1.487l23.71,1.917Z"/><path d="M111.915,106.647c0.466,-1.752 0.717,-3.554 0.746,-5.367c0.193,-12.125 -9.366,-22.168 -21.486,-22.574l-0.048,1.44c11.335,0.379 20.274,9.772 20.093,21.111c-0.027,1.695 -0.261,3.381 -0.698,5.019l1.393,0.371Z"/><path d="M69.772,97.738c0.429,-1.959 0.061,-4.007 -1.022,-5.694c-1.306,-2.037 -3.51,-3.323 -5.927,-3.462l-0.089,1.527c1.928,0.111 3.686,1.137 4.728,2.761c0.864,1.346 1.157,2.98 0.815,4.543l1.495,0.325Z"/></g><path d="M87.069,112.964l-2.541,-0.205l-0.131,1.634l2.54,0.204l0.132,-1.633Z" style="fill:#008eb2;"/><g id="Cleanup"><path d="M69.957,96.618c-0.016,-1.035 -0.138,-2.102 -0.277,-3.174l1.529,0.244l-1.252,2.93Z" style="fill:#008eb2;"/><path d="M64.629,88.407l-1.132,-0.216l-0.087,0.459l1.132,0.215l0.087,-0.458Z" style="fill:#008eb2;"/><path d="M64.063,88.242l-1.224,-0.079l-0.031,0.48l1.224,0.078l0.031,-0.479Z" style="fill:#008eb2;"/></g></g><g id="Left1" serif:id="Left"><g id="Left-Part1" serif:id="Left Part"><path d="M235.815,110.259l19.952,-1.606l9.832,122.196l-19.953,1.605l-9.831,-122.195Z" style="fill:#008eb2;stroke:#000;stroke-width:1.63px;"/><path d="M230.688,236.284c0,-4.494 3.642,-8.136 8.136,-8.136c10.203,0 27.591,0 37.78,0c2.15,0 4.212,0.854 5.732,2.374c1.521,1.52 2.375,3.582 2.375,5.732c0,3.011 0,5.708 0,5.708c-17.988,-1.973 -35.995,-2.068 -54.023,0c0,0 0,-2.68 0,-5.678Z" style="fill:#008eb2;stroke:#000;stroke-width:1.49px;stroke-linecap:round;stroke-linejoin:round;stroke-miterlimit:1.5;"/><path d="M246.024,227.03l18.327,-1.572l0.315,3.681l-18.326,1.571l-0.316,-3.68Z" style="fill:#008eb2;"/></g><g id="Top-Left1" serif:id="Top Left"><g><path d="M249.428,81.554c-0.115,-1.463 0.98,-2.745 2.444,-2.86l14.737,-1.157c1.464,-0.115 2.746,0.981 2.861,2.445l0.416,5.304c0.115,1.464 -0.98,2.746 -2.444,2.861l-14.737,1.156c-1.464,0.115 -2.746,-0.98 -2.86,-2.444l-0.417,-5.305Z" style="fill:none;stroke:#000;stroke-width:2.98px;stroke-linecap:butt;stroke-linejoin:bevel;stroke-miterlimit:1.5;"/><path d="M249.428,81.554c-0.115,-1.463 0.98,-2.745 2.444,-2.86l14.737,-1.157c1.464,-0.115 2.746,0.981 2.861,2.445l0.416,5.304c0.115,1.464 -0.98,2.746 -2.444,2.861l-14.737,1.156c-1.464,0.115 -2.746,-0.98 -2.86,-2.444l-0.417,-5.305Z" style="fill:#008eb2;"/></g></g><g id="Left-Separator1" serif:id="Left Separator"><path d="M212.223,94.426l41.636,-3.35l1.529,19.003l-41.636,3.35l-1.529,-19.003Z" style="fill:#008eb2;"/><path d="M152.491,198.982l71.97,-109.982l19.088,12.491l-71.97,109.981l-19.088,-12.49Z" style="fill:#008eb2;"/><ellipse cx="213.988" cy="100.274" rx="2.061" ry="5.78" style="fill:#008eb2;"/><path d="M253.153,89.145l0.629,6.904l6.238,-7.858l-6.867,0.954Z" style="fill:#008eb2;"/><path d="M236.547,85.848c0.292,-1.573 0.051,-2.923 -0.7,-3.916c-2.361,-3.119 -9.089,-2.011 -15.016,2.474c-5.927,4.485 -8.822,10.659 -6.461,13.778c0.751,0.993 1.985,1.592 3.577,1.738l18.6,-14.074Z" style="fill:#008eb2;"/><rect x="226.112" y="81.073" width="27.445" height="12.966" style="fill:#008eb2;"/><path d="M252.451,78.631l-20.175,1.381l0.264,3.86l20.175,-1.381l-0.264,-3.86Z" style="fill:#008eb2;"/></g><g id="Lines1" serif:id="Lines"><path d="M254.12,98.341l1.624,-0.13l2.852,35.443l-1.625,0.13l-2.851,-35.443Z"/><path d="M253.879,94.732l1.575,-0.127l3.142,39.049l-1.575,0.126l-3.142,-39.048Z"/><path d="M236.122,112.835l1.246,0.816l-73.3,111.726l-1.245,-0.816l73.299,-111.726Z"/><path d="M212.175,105.329l1.29,0.845l-60.912,92.843l-1.29,-0.845l60.912,-92.843Z"/><path d="M229.177,80.534l-0.12,-1.488l23.71,-1.916l0.12,1.487l-23.71,1.917Z"/><path d="M212.003,106.647c-0.466,-1.752 -0.717,-3.554 -0.746,-5.367c-0.193,-12.125 9.366,-22.168 21.486,-22.574l0.048,1.44c-11.334,0.379 -20.274,9.772 -20.093,21.111c0.027,1.695 0.261,3.381 0.698,5.019l-1.393,0.371Z"/><path d="M254.146,97.738c-0.428,-1.959 -0.061,-4.007 1.022,-5.694c1.307,-2.037 3.51,-3.323 5.927,-3.462l0.089,1.527c-1.928,0.111 -3.686,1.137 -4.728,2.761c-0.864,1.346 -1.157,2.98 -0.815,4.543l-1.495,0.325Z"/></g><path d="M241.08,112.086l-4.273,0.344l0.215,2.67l4.273,-0.344l-0.215,-2.67Z" style="fill:#008eb2;"/><g id="Cleanup1" serif:id="Cleanup"><path d="M253.961,96.618c0.017,-1.035 0.138,-2.102 0.277,-3.174l-1.529,0.244l1.252,2.93Z" style="fill:#008eb2;"/><path d="M259.289,88.407l1.132,-0.216l0.087,0.459l-1.132,0.215l-0.087,-0.458Z" style="fill:#008eb2;"/><path d="M259.855,88.242l1.224,-0.079l0.031,0.48l-1.224,0.078l-0.031,-0.479Z" style="fill:#008eb2;"/></g></g><path d="M167.814,193.693l-14.612,-22.329l-18.869,12.348l14.612,22.329l18.869,-12.348Z" style="fill:#008eb2;"/><path d="M161.962,223.959l2.128,1.414l-4.255,0l2.127,-1.414Z"/><rect x="161.1" y="223.5" width="1.738" height="1.041" style="fill:#008eb2;"/><defs><linearGradient id="_Linear1" x1="0" y1="0" x2="1" y2="0" gradientUnits="userSpaceOnUse" gradientTransform="matrix(14.2111,98.3073,-98.3073,14.2111,6.31059,-34.5429)"><stop offset="0" style="stop-color:#000;stop-opacity:1"/><stop offset="1" style="stop-color:#000;stop-opacity:0"/></linearGradient><linearGradient id="_Linear2" x1="0" y1="0" x2="1" y2="0" gradientUnits="userSpaceOnUse" gradientTransform="matrix(14.2111,98.3073,-98.3073,14.2111,24.2923,-34.5429)"><stop offset="0" style="stop-color:#000;stop-opacity:1"/><stop offset="1" style="stop-color:#000;stop-opacity:0"/></linearGradient><linearGradient id="_Linear3" x1="0" y1="0" x2="1" y2="0" gradientUnits="userSpaceOnUse" gradientTransform="matrix(14.2111,98.3073,-98.3073,14.2111,42.63,-34.5429)"><stop offset="0" style="stop-color:#000;stop-opacity:1"/><stop offset="1" style="stop-color:#000;stop-opacity:0"/></linearGradient><linearGradient id="_Linear4" x1="0" y1="0" x2="1" y2="0" gradientUnits="userSpaceOnUse" gradientTransform="matrix(14.2111,98.3073,-98.3073,14.2111,60.6117,-34.5429)"><stop offset="0" style="stop-color:#000;stop-opacity:1"/><stop offset="1" style="stop-color:#000;stop-opacity:0"/></linearGradient><linearGradient id="_Linear5" x1="0" y1="0" x2="1" y2="0" gradientUnits="userSpaceOnUse" gradientTransform="matrix(14.2111,98.3073,-98.3073,14.2111,6.31059,-15.9901)"><stop offset="0" style="stop-color:#000;stop-opacity:1"/><stop offset="1" style="stop-color:#000;stop-opacity:0"/></linearGradient><linearGradient id="_Linear6" x1="0" y1="0" x2="1" y2="0" gradientUnits="userSpaceOnUse" gradientTransform="matrix(14.2111,98.3073,-98.3073,14.2111,24.2923,-15.9901)"><stop offset="0" style="stop-color:#000;stop-opacity:1"/><stop offset="1" style="stop-color:#000;stop-opacity:0"/></linearGradient><linearGradient id="_Linear7" x1="0" y1="0" x2="1" y2="0" gradientUnits="userSpaceOnUse" gradientTransform="matrix(14.2111,98.3073,-98.3073,14.2111,42.63,-15.9901)"><stop offset="0" style="stop-color:#000;stop-opacity:1"/><stop offset="1" style="stop-color:#000;stop-opacity:0"/></linearGradient><linearGradient id="_Linear8" x1="0" y1="0" x2="1" y2="0" gradientUnits="userSpaceOnUse" gradientTransform="matrix(14.2111,98.3073,-98.3073,14.2111,60.6117,-15.9901)"><stop offset="0" style="stop-color:#000;stop-opacity:1"/><stop offset="1" style="stop-color:#000;stop-opacity:0"/></linearGradient><linearGradient id="_Linear9" x1="0" y1="0" x2="1" y2="0" gradientUnits="userSpaceOnUse" gradientTransform="matrix(14.2111,98.3073,-98.3073,14.2111,6.31059,2.56454)"><stop offset="0" style="stop-color:#000;stop-opacity:1"/><stop offset="1" style="stop-color:#000;stop-opacity:0"/></linearGradient><linearGradient id="_Linear10" x1="0" y1="0" x2="1" y2="0" gradientUnits="userSpaceOnUse" gradientTransform="matrix(14.2111,98.3073,-98.3073,14.2111,24.2923,2.56454)"><stop offset="0" style="stop-color:#000;stop-opacity:1"/><stop offset="1" style="stop-color:#000;stop-opacity:0"/></linearGradient><linearGradient id="_Linear11" x1="0" y1="0" x2="1" y2="0" gradientUnits="userSpaceOnUse" gradientTransform="matrix(14.2111,98.3073,-98.3073,14.2111,42.63,2.56454)"><stop offset="0" style="stop-color:#000;stop-opacity:1"/><stop offset="1" style="stop-color:#000;stop-opacity:0"/></linearGradient><linearGradient id="_Linear12" x1="0" y1="0" x2="1" y2="0" gradientUnits="userSpaceOnUse" gradientTransform="matrix(14.2111,98.3073,-98.3073,14.2111,60.6117,2.56454)"><stop offset="0" style="stop-color:#000;stop-opacity:1"/><stop offset="1" style="stop-color:#000;stop-opacity:0"/></linearGradient><linearGradient id="_Linear13" x1="0" y1="0" x2="1" y2="0" gradientUnits="userSpaceOnUse" gradientTransform="matrix(14.2111,98.3073,-98.3073,14.2111,6.31059,21.1174)"><stop offset="0" style="stop-color:#000;stop-opacity:1"/><stop offset="1" style="stop-color:#000;stop-opacity:0"/></linearGradient><linearGradient id="_Linear14" x1="0" y1="0" x2="1" y2="0" gradientUnits="userSpaceOnUse" gradientTransform="matrix(14.2111,98.3073,-98.3073,14.2111,24.2923,21.1174)"><stop offset="0" style="stop-color:#000;stop-opacity:1"/><stop offset="1" style="stop-color:#000;stop-opacity:0"/></linearGradient><linearGradient id="_Linear15" x1="0" y1="0" x2="1" y2="0" gradientUnits="userSpaceOnUse" gradientTransform="matrix(14.2111,98.3073,-98.3073,14.2111,42.63,21.1174)"><stop offset="0" style="stop-color:#000;stop-opacity:1"/><stop offset="1" style="stop-color:#000;stop-opacity:0"/></linearGradient><linearGradient id="_Linear16" x1="0" y1="0" x2="1" y2="0" gradientUnits="userSpaceOnUse" gradientTransform="matrix(14.2111,98.3073,-98.3073,14.2111,60.6117,21.1174)"><stop offset="0" style="stop-color:#000;stop-opacity:1"/><stop offset="1" style="stop-color:#000;stop-opacity:0"/></linearGradient><linearGradient id="_Linear17" x1="0" y1="0" x2="1" y2="0" gradientUnits="userSpaceOnUse" gradientTransform="matrix(14.2111,98.3073,-98.3073,14.2111,246.035,-34.5469)"><stop offset="0" style="stop-color:#000;stop-opacity:1"/><stop offset="1" style="stop-color:#000;stop-opacity:0"/></linearGradient><linearGradient id="_Linear18" x1="0" y1="0" x2="1" y2="0" gradientUnits="userSpaceOnUse" gradientTransform="matrix(14.2111,98.3073,-98.3073,14.2111,264.016,-34.5469)"><stop offset="0" style="stop-color:#000;stop-opacity:1"/><stop offset="1" style="stop-color:#000;stop-opacity:0"/></linearGradient><linearGradient id="_Linear19" x1="0" y1="0" x2="1" y2="0" gradientUnits="userSpaceOnUse" gradientTransform="matrix(14.2111,98.3073,-98.3073,14.2111,282.354,-34.5469)"><stop offset="0" style="stop-color:#000;stop-opacity:1"/><stop offset="1" style="stop-color:#000;stop-opacity:0"/></linearGradient><linearGradient id="_Linear20" x1="0" y1="0" x2="1" y2="0" gradientUnits="userSpaceOnUse" gradientTransform="matrix(14.2111,98.3073,-98.3073,14.2111,300.336,-34.5469)"><stop offset="0" style="stop-color:#000;stop-opacity:1"/><stop offset="1" style="stop-color:#000;stop-opacity:0"/></linearGradient><linearGradient id="_Linear21" x1="0" y1="0" x2="1" y2="0" gradientUnits="userSpaceOnUse" gradientTransform="matrix(14.2111,98.3073,-98.3073,14.2111,246.035,-15.994)"><stop offset="0" style="stop-color:#000;stop-opacity:1"/><stop offset="1" style="stop-color:#000;stop-opacity:0"/></linearGradient><linearGradient id="_Linear22" x1="0" y1="0" x2="1" y2="0" gradientUnits="userSpaceOnUse" gradientTransform="matrix(14.2111,98.3073,-98.3073,14.2111,264.016,-15.994)"><stop offset="0" style="stop-color:#000;stop-opacity:1"/><stop offset="1" style="stop-color:#000;stop-opacity:0"/></linearGradient><linearGradient id="_Linear23" x1="0" y1="0" x2="1" y2="0" gradientUnits="userSpaceOnUse" gradientTransform="matrix(14.2111,98.3073,-98.3073,14.2111,282.354,-15.994)"><stop offset="0" style="stop-color:#000;stop-opacity:1"/><stop offset="1" style="stop-color:#000;stop-opacity:0"/></linearGradient><linearGradient id="_Linear24" x1="0" y1="0" x2="1" y2="0" gradientUnits="userSpaceOnUse" gradientTransform="matrix(14.2111,98.3073,-98.3073,14.2111,300.336,-15.994)"><stop offset="0" style="stop-color:#000;stop-opacity:1"/><stop offset="1" style="stop-color:#000;stop-opacity:0"/></linearGradient><linearGradient id="_Linear25" x1="0" y1="0" x2="1" y2="0" gradientUnits="userSpaceOnUse" gradientTransform="matrix(14.2111,98.3073,-98.3073,14.2111,246.035,2.5606)"><stop offset="0" style="stop-color:#000;stop-opacity:1"/><stop offset="1" style="stop-color:#000;stop-opacity:0"/></linearGradient><linearGradient id="_Linear26" x1="0" y1="0" x2="1" y2="0" gradientUnits="userSpaceOnUse" gradientTransform="matrix(14.2111,98.3073,-98.3073,14.2111,264.016,2.5606)"><stop offset="0" style="stop-color:#000;stop-opacity:1"/><stop offset="1" style="stop-color:#000;stop-opacity:0"/></linearGradient><linearGradient id="_Linear27" x1="0" y1="0" x2="1" y2="0" gradientUnits="userSpaceOnUse" gradientTransform="matrix(14.2111,98.3073,-98.3073,14.2111,282.354,2.5606)"><stop offset="0" style="stop-color:#000;stop-opacity:1"/><stop offset="1" style="stop-color:#000;stop-opacity:0"/></linearGradient><linearGradient id="_Linear28" x1="0" y1="0" x2="1" y2="0" gradientUnits="userSpaceOnUse" gradientTransform="matrix(14.2111,98.3073,-98.3073,14.2111,300.336,2.5606)"><stop offset="0" style="stop-color:#000;stop-opacity:1"/><stop offset="1" style="stop-color:#000;stop-opacity:0"/></linearGradient><linearGradient id="_Linear29" x1="0" y1="0" x2="1" y2="0" gradientUnits="userSpaceOnUse" gradientTransform="matrix(14.2111,98.3073,-98.3073,14.2111,246.035,21.1135)"><stop offset="0" style="stop-color:#000;stop-opacity:1"/><stop offset="1" style="stop-color:#000;stop-opacity:0"/></linearGradient><linearGradient id="_Linear30" x1="0" y1="0" x2="1" y2="0" gradientUnits="userSpaceOnUse" gradientTransform="matrix(14.2111,98.3073,-98.3073,14.2111,264.016,21.1135)"><stop offset="0" style="stop-color:#000;stop-opacity:1"/><stop offset="1" style="stop-color:#000;stop-opacity:0"/></linearGradient><linearGradient id="_Linear31" x1="0" y1="0" x2="1" y2="0" gradientUnits="userSpaceOnUse" gradientTransform="matrix(14.2111,98.3073,-98.3073,14.2111,282.354,21.1135)"><stop offset="0" style="stop-color:#000;stop-opacity:1"/><stop offset="1" style="stop-color:#000;stop-opacity:0"/></linearGradient><linearGradient id="_Linear32" x1="0" y1="0" x2="1" y2="0" gradientUnits="userSpaceOnUse" gradientTransform="matrix(14.2111,98.3073,-98.3073,14.2111,300.336,21.1135)"><stop offset="0" style="stop-color:#000;stop-opacity:1"/><stop offset="1" style="stop-color:#000;stop-opacity:0"/></linearGradient><linearGradient id="_Linear33" x1="0" y1="0" x2="1" y2="0" gradientUnits="userSpaceOnUse" gradientTransform="matrix(14.2111,98.3073,-98.3073,14.2111,246.035,205.317)"><stop offset="0" style="stop-color:#000;stop-opacity:1"/><stop offset="1" style="stop-color:#000;stop-opacity:0"/></linearGradient><linearGradient id="_Linear34" x1="0" y1="0" x2="1" y2="0" gradientUnits="userSpaceOnUse" gradientTransform="matrix(14.2111,98.3073,-98.3073,14.2111,264.016,205.317)"><stop offset="0" style="stop-color:#000;stop-opacity:1"/><stop offset="1" style="stop-color:#000;stop-opacity:0"/></linearGradient><linearGradient id="_Linear35" x1="0" y1="0" x2="1" y2="0" gradientUnits="userSpaceOnUse" gradientTransform="matrix(14.2111,98.3073,-98.3073,14.2111,282.354,205.317)"><stop offset="0" style="stop-color:#000;stop-opacity:1"/><stop offset="1" style="stop-color:#000;stop-opacity:0"/></linearGradient><linearGradient id="_Linear36" x1="0" y1="0" x2="1" y2="0" gradientUnits="userSpaceOnUse" gradientTransform="matrix(14.2111,98.3073,-98.3073,14.2111,300.336,205.317)"><stop offset="0" style="stop-color:#000;stop-opacity:1"/><stop offset="1" style="stop-color:#000;stop-opacity:0"/></linearGradient><linearGradient id="_Linear37" x1="0" y1="0" x2="1" y2="0" gradientUnits="userSpaceOnUse" gradientTransform="matrix(14.2111,98.3073,-98.3073,14.2111,246.035,223.869)"><stop offset="0" style="stop-color:#000;stop-opacity:1"/><stop offset="1" style="stop-color:#000;stop-opacity:0"/></linearGradient><linearGradient id="_Linear38" x1="0" y1="0" x2="1" y2="0" gradientUnits="userSpaceOnUse" gradientTransform="matrix(14.2111,98.3073,-98.3073,14.2111,264.016,223.869)"><stop offset="0" style="stop-color:#000;stop-opacity:1"/><stop offset="1" style="stop-color:#000;stop-opacity:0"/></linearGradient><linearGradient id="_Linear39" x1="0" y1="0" x2="1" y2="0" gradientUnits="userSpaceOnUse" gradientTransform="matrix(14.2111,98.3073,-98.3073,14.2111,282.354,223.869)"><stop offset="0" style="stop-color:#000;stop-opacity:1"/><stop offset="1" style="stop-color:#000;stop-opacity:0"/></linearGradient><linearGradient id="_Linear40" x1="0" y1="0" x2="1" y2="0" gradientUnits="userSpaceOnUse" gradientTransform="matrix(14.2111,98.3073,-98.3073,14.2111,300.336,223.869)"><stop offset="0" style="stop-color:#000;stop-opacity:1"/><stop offset="1" style="stop-color:#000;stop-opacity:0"/></linearGradient><linearGradient id="_Linear41" x1="0" y1="0" x2="1" y2="0" gradientUnits="userSpaceOnUse" gradientTransform="matrix(14.2111,98.3073,-98.3073,14.2111,246.035,242.424)"><stop offset="0" style="stop-color:#000;stop-opacity:1"/><stop offset="1" style="stop-color:#000;stop-opacity:0"/></linearGradient><linearGradient id="_Linear42" x1="0" y1="0" x2="1" y2="0" gradientUnits="userSpaceOnUse" gradientTransform="matrix(14.2111,98.3073,-98.3073,14.2111,264.016,242.424)"><stop offset="0" style="stop-color:#000;stop-opacity:1"/><stop offset="1" style="stop-color:#000;stop-opacity:0"/></linearGradient><linearGradient id="_Linear43" x1="0" y1="0" x2="1" y2="0" gradientUnits="userSpaceOnUse" gradientTransform="matrix(14.2111,98.3073,-98.3073,14.2111,282.354,242.424)"><stop offset="0" style="stop-color:#000;stop-opacity:1"/><stop offset="1" style="stop-color:#000;stop-opacity:0"/></linearGradient><linearGradient id="_Linear44" x1="0" y1="0" x2="1" y2="0" gradientUnits="userSpaceOnUse" gradientTransform="matrix(14.2111,98.3073,-98.3073,14.2111,300.336,242.424)"><stop offset="0" style="stop-color:#000;stop-opacity:1"/><stop offset="1" style="stop-color:#000;stop-opacity:0"/></linearGradient><linearGradient id="_Linear45" x1="0" y1="0" x2="1" y2="0" gradientUnits="userSpaceOnUse" gradientTransform="matrix(14.2111,98.3073,-98.3073,14.2111,246.035,260.977)"><stop offset="0" style="stop-color:#000;stop-opacity:1"/><stop offset="1" style="stop-color:#000;stop-opacity:0"/></linearGradient><linearGradient id="_Linear46" x1="0" y1="0" x2="1" y2="0" gradientUnits="userSpaceOnUse" gradientTransform="matrix(14.2111,98.3073,-98.3073,14.2111,264.016,260.977)"><stop offset="0" style="stop-color:#000;stop-opacity:1"/><stop offset="1" style="stop-color:#000;stop-opacity:0"/></linearGradient><linearGradient id="_Linear47" x1="0" y1="0" x2="1" y2="0" gradientUnits="userSpaceOnUse" gradientTransform="matrix(14.2111,98.3073,-98.3073,14.2111,282.354,260.977)"><stop offset="0" style="stop-color:#000;stop-opacity:1"/><stop offset="1" style="stop-color:#000;stop-opacity:0"/></linearGradient><linearGradient id="_Linear48" x1="0" y1="0" x2="1" y2="0" gradientUnits="userSpaceOnUse" gradientTransform="matrix(14.2111,98.3073,-98.3073,14.2111,300.336,260.977)"><stop offset="0" style="stop-color:#000;stop-opacity:1"/><stop offset="1" style="stop-color:#000;stop-opacity:0"/></linearGradient><linearGradient id="_Linear49" x1="0" y1="0" x2="1" y2="0" gradientUnits="userSpaceOnUse" gradientTransform="matrix(14.2111,98.3073,-98.3073,14.2111,6.31059,205.317)"><stop offset="0" style="stop-color:#000;stop-opacity:1"/><stop offset="1" style="stop-color:#000;stop-opacity:0"/></linearGradient><linearGradient id="_Linear50" x1="0" y1="0" x2="1" y2="0" gradientUnits="userSpaceOnUse" gradientTransform="matrix(14.2111,98.3073,-98.3073,14.2111,24.2923,205.317)"><stop offset="0" style="stop-color:#000;stop-opacity:1"/><stop offset="1" style="stop-color:#000;stop-opacity:0"/></linearGradient><linearGradient id="_Linear51" x1="0" y1="0" x2="1" y2="0" gradientUnits="userSpaceOnUse" gradientTransform="matrix(14.2111,98.3073,-98.3073,14.2111,42.63,205.317)"><stop offset="0" style="stop-color:#000;stop-opacity:1"/><stop offset="1" style="stop-color:#000;stop-opacity:0"/></linearGradient><linearGradient id="_Linear52" x1="0" y1="0" x2="1" y2="0" gradientUnits="userSpaceOnUse" gradientTransform="matrix(14.2111,98.3073,-98.3073,14.2111,60.6117,205.317)"><stop offset="0" style="stop-color:#000;stop-opacity:1"/><stop offset="1" style="stop-color:#000;stop-opacity:0"/></linearGradient><linearGradient id="_Linear53" x1="0" y1="0" x2="1" y2="0" gradientUnits="userSpaceOnUse" gradientTransform="matrix(14.2111,98.3073,-98.3073,14.2111,6.31059,223.869)"><stop offset="0" style="stop-color:#000;stop-opacity:1"/><stop offset="1" style="stop-color:#000;stop-opacity:0"/></linearGradient><linearGradient id="_Linear54" x1="0" y1="0" x2="1" y2="0" gradientUnits="userSpaceOnUse" gradientTransform="matrix(14.2111,98.3073,-98.3073,14.2111,24.2923,223.869)"><stop offset="0" style="stop-color:#000;stop-opacity:1"/><stop offset="1" style="stop-color:#000;stop-opacity:0"/></linearGradient><linearGradient id="_Linear55" x1="0" y1="0" x2="1" y2="0" gradientUnits="userSpaceOnUse" gradientTransform="matrix(14.2111,98.3073,-98.3073,14.2111,42.63,223.869)"><stop offset="0" style="stop-color:#000;stop-opacity:1"/><stop offset="1" style="stop-color:#000;stop-opacity:0"/></linearGradient><linearGradient id="_Linear56" x1="0" y1="0" x2="1" y2="0" gradientUnits="userSpaceOnUse" gradientTransform="matrix(14.2111,98.3073,-98.3073,14.2111,60.6117,223.869)"><stop offset="0" style="stop-color:#000;stop-opacity:1"/><stop offset="1" style="stop-color:#000;stop-opacity:0"/></linearGradient><linearGradient id="_Linear57" x1="0" y1="0" x2="1" y2="0" gradientUnits="userSpaceOnUse" gradientTransform="matrix(14.2111,98.3073,-98.3073,14.2111,6.31059,242.424)"><stop offset="0" style="stop-color:#000;stop-opacity:1"/><stop offset="1" style="stop-color:#000;stop-opacity:0"/></linearGradient><linearGradient id="_Linear58" x1="0" y1="0" x2="1" y2="0" gradientUnits="userSpaceOnUse" gradientTransform="matrix(14.2111,98.3073,-98.3073,14.2111,24.2923,242.424)"><stop offset="0" style="stop-color:#000;stop-opacity:1"/><stop offset="1" style="stop-color:#000;stop-opacity:0"/></linearGradient><linearGradient id="_Linear59" x1="0" y1="0" x2="1" y2="0" gradientUnits="userSpaceOnUse" gradientTransform="matrix(14.2111,98.3073,-98.3073,14.2111,42.63,242.424)"><stop offset="0" style="stop-color:#000;stop-opacity:1"/><stop offset="1" style="stop-color:#000;stop-opacity:0"/></linearGradient><linearGradient id="_Linear60" x1="0" y1="0" x2="1" y2="0" gradientUnits="userSpaceOnUse" gradientTransform="matrix(14.2111,98.3073,-98.3073,14.2111,60.6117,242.424)"><stop offset="0" style="stop-color:#000;stop-opacity:1"/><stop offset="1" style="stop-color:#000;stop-opacity:0"/></linearGradient><linearGradient id="_Linear61" x1="0" y1="0" x2="1" y2="0" gradientUnits="userSpaceOnUse" gradientTransform="matrix(14.2111,98.3073,-98.3073,14.2111,6.31059,260.977)"><stop offset="0" style="stop-color:#000;stop-opacity:1"/><stop offset="1" style="stop-color:#000;stop-opacity:0"/></linearGradient><linearGradient id="_Linear62" x1="0" y1="0" x2="1" y2="0" gradientUnits="userSpaceOnUse" gradientTransform="matrix(14.2111,98.3073,-98.3073,14.2111,24.2923,260.977)"><stop offset="0" style="stop-color:#000;stop-opacity:1"/><stop offset="1" style="stop-color:#000;stop-opacity:0"/></linearGradient><linearGradient id="_Linear63" x1="0" y1="0" x2="1" y2="0" gradientUnits="userSpaceOnUse" gradientTransform="matrix(14.2111,98.3073,-98.3073,14.2111,42.63,260.977)"><stop offset="0" style="stop-color:#000;stop-opacity:1"/><stop offset="1" style="stop-color:#000;stop-opacity:0"/></linearGradient><linearGradient id="_Linear64" x1="0" y1="0" x2="1" y2="0" gradientUnits="userSpaceOnUse" gradientTransform="matrix(14.2111,98.3073,-98.3073,14.2111,60.6117,260.977)"><stop offset="0" style="stop-color:#000;stop-opacity:1"/><stop offset="1" style="stop-color:#000;stop-opacity:0"/></linearGradient></defs></svg>